<mxfile host="app.diagrams.net" modified="2023-04-26T05:47:40.264Z" agent="Mozilla/5.0 (Windows NT 10.0; Win64; x64) AppleWebKit/537.36 (KHTML, like Gecko) Chrome/112.0.0.0 Safari/537.36" version="21.2.2" etag="MBe2rrSslrc-m7vFBqpj" type="github">
  <diagram name="페이지-1" id="jpeiGJa8zNaKcIe0OD4v">
    <mxGraphModel>
      <root>
        <mxCell id="0" />
        <mxCell id="1" parent="0" />
      </root>
    </mxGraphModel>
  </diagram>
</mxfile>
